<?xml version="1.0" encoding="utf-8"?>
<!-- Generator: Adobe Illustrator 23.1.0, SVG Export Plug-In . SVG Version: 6.00 Build 0)  -->
<svg version="1.0" id="图层_1" xmlns="http://www.w3.org/2000/svg" xmlns:xlink="http://www.w3.org/1999/xlink" x="0px" y="0px"
	 viewBox="0 0 31.8 31.8" style="enable-background:new 0 0 31.8 31.8;" xml:space="preserve">
<style type="text/css">
	.st0{fill:#E60012;}
	.st1{fill:none;}
	.st2{fill:none;stroke:#E83828;stroke-miterlimit:10;}
	.st3{fill:#E71F19;}
	.st4{fill:#FFF100;}
	.st5{fill:#FFFFFF;}
	.st6{fill:#F5E329;}
	.st7{fill:#DA4140;}
	.st8{fill:#0ebeff;}
	.st9{fill:none;stroke:#000000;stroke-width:0.75;stroke-miterlimit:10;}
	.st10{fill:#E7C130;}
	.st11{fill:none;stroke:#000000;stroke-width:0.9;stroke-miterlimit:10;}
</style>
<g>
	<path class="st8" d="M22.8,31.8H9.1c-5,0-9.1-4.1-9.1-9.1V9.1C0,4.1,4.1,0,9.1,0h13.7c5,0,9.1,4.1,9.1,9.1v13.7
		C31.8,27.8,27.8,31.8,22.8,31.8z"/>
	<path d="M22,18.4l-4.2-2.5l4.1-2.5c0.5-0.3,0.6-0.9,0.3-1.4c-0.3-0.5-0.9-0.6-1.4-0.3l-4,2.4V9.2c0-0.6-0.4-1-1-1s-1,0.4-1,1v4.9
		l-4.1-2.4c-0.5-0.3-1.1-0.1-1.4,0.3s-0.1,1.1,0.3,1.4l4.1,2.5l-4.1,2.5c-0.5,0.3-0.6,0.9-0.3,1.4c0.2,0.3,0.5,0.5,0.9,0.5
		c0.2,0,0.4,0,0.5-0.1l4.1-2.5v4.9c0,0.6,0.4,1,1,1s1-0.4,1-1v-4.9l4.1,2.4c0.2,0.1,0.3,0.1,0.5,0.1c0.3,0,0.7-0.2,0.9-0.5
		C22.7,19.3,22.5,18.7,22,18.4z"/>
</g>
</svg>
