<?xml version="1.0" encoding="utf-8"?>
<!-- Generator: Adobe Illustrator 23.1.0, SVG Export Plug-In . SVG Version: 6.00 Build 0)  -->
<svg version="1.0" id="图层_1" xmlns="http://www.w3.org/2000/svg" xmlns:xlink="http://www.w3.org/1999/xlink" x="0px" y="0px"
	 viewBox="0 0 32.5 32.8" style="enable-background:new 0 0 32.5 32.8;" xml:space="preserve">
<style type="text/css">
	.st0{fill:#E60012;}
	.st1{fill:none;}
	.st2{fill:none;stroke:#E83828;stroke-miterlimit:10;}
	.st3{fill:#E71F19;}
	.st4{fill:#FFF100;}
	.st5{fill:#FFFFFF;}
	.st6{fill:#F5E329;}
	.st7{fill:#DA4140;}
	.st8{fill:#38A6D7;}
	.st9{fill:none;stroke:#000000;stroke-width:0.75;stroke-miterlimit:10;}
	.st10{fill:#E7C130;}
	.st11{fill:none;stroke:#000000;stroke-width:0.9;stroke-miterlimit:10;}
</style>
<g>
	<path class="st7" d="M23.4,32.8H9.1c-5,0-9.1-4.1-9.1-9.1V9.4c0-5,4.1-9.1,9.1-9.1h14.4c5,0,9.1,4.1,9.1,9.1v14.4
		C32.5,28.7,28.4,32.8,23.4,32.8z"/>
	<path d="M23.3,4.9c-0.5-0.3-1.1-0.1-1.4,0.3L9.3,26.1c-0.3,0.5-0.1,1.1,0.3,1.4c0.2,0.1,0.3,0.1,0.5,0.1c0.3,0,0.7-0.2,0.9-0.5
		L23.7,6.3C24,5.8,23.8,5.2,23.3,4.9z"/>
</g>
</svg>
