<?xml version="1.0" encoding="utf-8"?>
<!-- Generator: Adobe Illustrator 23.1.0, SVG Export Plug-In . SVG Version: 6.00 Build 0)  -->
<svg version="1.0" id="图层_1" xmlns="http://www.w3.org/2000/svg" xmlns:xlink="http://www.w3.org/1999/xlink" x="0px" y="0px"
	 viewBox="0 0 31.8 31.8" style="enable-background:new 0 0 31.8 31.8;" xml:space="preserve">
<style type="text/css">
	.st0{fill:#E60012;}
	.st1{fill:none;}
	.st2{fill:none;stroke:#E83828;stroke-miterlimit:10;}
	.st3{fill:#E71F19;}
	.st4{fill:#FFF100;}
	.st5{fill:#FFFFFF;}
	.st6{fill:#F5E329;}
	.st7{fill:#DA4140;}
	.st8{fill:#38A6D7;}
	.st9{fill:none;stroke:#000000;stroke-width:0.75;stroke-miterlimit:10;}
	.st10{fill:#E7C130;}
	.st11{fill:none;stroke:#000000;stroke-width:0.9;stroke-miterlimit:10;}
</style>
<g>
	<path class="st10" d="M22.8,31.8H9.1c-5,0-9.1-4.1-9.1-9.1V9.1C0,4.1,4.1,0,9.1,0h13.7c5,0,9.1,4.1,9.1,9.1v13.7
		C31.8,27.8,27.8,31.8,22.8,31.8z"/>
	<path d="M13.6,25c-0.1,0-0.2,0-0.2,0c-4.4-1.1-7.5-5-7.5-9.4S9,7.3,13.3,6.2c0.5-0.1,1.1,0.2,1.2,0.7c0.1,0.5-0.2,1.1-0.7,1.2
		c-3.5,0.9-6,4-6,7.5s2.5,6.6,6,7.5c0.5,0.1,0.8,0.7,0.7,1.2C14.4,24.7,14,25,13.6,25z"/>
	<path d="M17.7,25c-0.4,0-0.8-0.3-1-0.7c-0.1-0.5,0.2-1.1,0.7-1.2c3.5-0.9,6-4,6-7.5S21,9,17.5,8.1c-0.5-0.1-0.8-0.7-0.7-1.2
		c0.1-0.5,0.7-0.8,1.2-0.7c4.4,1.1,7.5,5,7.5,9.4S22.4,23.9,18,25C17.9,25,17.8,25,17.7,25z"/>
</g>
</svg>
